<svg width="1230" height="712" viewBox="0 0 1230 712" fill="none" xmlns="http://www.w3.org/2000/svg">
<path d="M346.207 75.5678C462.065 20.0722 606.872 -28.6902 762.909 22.0196C870.353 56.9375 947.893 86.2773 999.494 188.506C1051.1 290.734 1057.91 295.525 1044.28 497.138C1030.65 698.75 711.019 752.679 600.531 681.651C490.043 610.623 326.942 734.265 211.85 650.967C96.7574 567.669 108.569 529.491 99.8852 434.827C91.4979 343.396 112.063 283.886 165.117 208.951C215.87 137.266 230.348 131.063 346.207 75.5678Z" fill="#EEEEEE"/>
<path fill-rule="evenodd" clip-rule="evenodd" d="M1045.47 405.853H1085.61V429.45H1113.47C1129.19 429.45 1141.93 442.182 1141.93 457.888V502.914C1141.93 518.62 1129.19 531.352 1113.47 531.352H1085.61V543.806C1085.61 567.865 1066.09 587.369 1042.01 587.369H972.968C948.887 587.369 929.365 567.865 929.365 543.806V405.853H1036.73L1030.68 418.287L1035.22 429.713L1030.68 439.29L1039.76 429.713L1036.73 418.287L1045.47 405.853ZM1085.61 517.133V443.669H1105.99C1117.33 443.669 1126.51 452.848 1126.51 464.171V496.631C1126.51 507.954 1117.33 517.133 1105.99 517.133H1085.61Z" fill="#ED5A5A"/>
<path d="M201.985 259.428L344.374 506.054H59.5957L201.985 259.428Z" fill="#ED5A5A"/>
<path d="M212.244 346.766C212.244 340.664 207.298 335.718 201.196 335.718C195.094 335.718 190.147 340.664 190.147 346.766V438.84C190.147 444.942 195.094 449.889 201.196 449.889C207.298 449.889 212.244 444.942 212.244 438.84V346.766Z" fill="white"/>
<path d="M201.196 483.035C207.298 483.035 212.244 478.088 212.244 471.986C212.244 465.884 207.298 460.937 201.196 460.937C195.094 460.937 190.147 465.884 190.147 471.986C190.147 478.088 195.094 483.035 201.196 483.035Z" fill="white"/>
<rect x="292.743" y="209.342" width="607.685" height="352.51" rx="15.784" fill="#0A1629"/>
<rect x="308.527" y="230.387" width="573.486" height="310.419" fill="white"/>
<path d="M491.32 367.246L534.104 324.463" stroke="#ED5A5A" stroke-width="13.1533" stroke-linecap="round"/>
<path d="M532.243 367.247L489.46 324.463" stroke="#ED5A5A" stroke-width="13.1533" stroke-linecap="round"/>
<path d="M655.807 369.255L698.591 326.471" stroke="#ED5A5A" stroke-width="13.1533" stroke-linecap="round"/>
<path d="M696.731 369.255L653.947 326.471" stroke="#ED5A5A" stroke-width="13.1533" stroke-linecap="round"/>
<path d="M490.043 433.052H655.776M655.776 433.052C655.776 433.052 655.776 453.094 655.776 465.936C655.776 496.189 700.497 497.504 700.497 465.936V433.052H678.136M655.776 433.052H678.136M678.136 433.052V465.936" stroke="#ED5A5A" stroke-width="13.1533" stroke-linecap="round"/>
<rect x="308.527" y="230.491" width="573.486" height="28.9374" fill="#C4C4C4"/>
<circle cx="324.311" cy="245.382" r="5.26134" fill="#ED5A5A"/>
<circle cx="342.726" cy="245.382" r="5.26134" fill="#FFF000"/>
<circle cx="361.14" cy="245.382" r="5.26134" fill="#077907"/>
<path d="M493.433 241.014H566.737L590.009 259.428H468.998L493.433 241.014Z" fill="#AAAAAA"/>
<path d="M596.029 241.014H669.333L692.605 259.428H571.594L596.029 241.014Z" fill="#AAAAAA"/>
<path d="M390.837 241.014H464.141L487.413 259.428H366.402L390.837 241.014Z" fill="white"/>
<path d="M461.302 253.4L465.796 248.906" stroke="#888888" stroke-width="1.10531" stroke-linecap="round"/>
<path d="M465.6 253.4L461.106 248.906" stroke="#888888" stroke-width="1.10531" stroke-linecap="round"/>
<path d="M229.607 554.063H963.564V561.955C963.564 576.484 951.786 588.262 937.257 588.262H255.914C241.385 588.262 229.607 576.484 229.607 561.955V554.063Z" fill="#BBBBBB"/>
<path d="M526.873 554.063H663.667V556.855C663.667 561.994 659.501 566.161 654.362 566.161H536.178C531.039 566.161 526.873 561.994 526.873 556.855V554.063Z" fill="#777777"/>
<path d="M948.685 202.495C940.578 224.536 946.305 234.663 958.441 248.393C974.54 266.605 976.757 285.886 971.257 308.689C965.122 334.13 981.419 368.296 994.93 371.381" stroke="#BBBBBB" stroke-width="11.0406" stroke-linecap="round"/>
<path d="M1008.52 201.554C996.006 221.427 999.502 232.524 1008.52 248.477C1020.48 269.638 1018.64 288.959 1008.52 310.12C997.228 333.729 1006.07 370.537 1018.64 376.364" stroke="#BBBBBB" stroke-width="11.0406" stroke-linecap="round"/>
<path d="M1068.85 203.243C1052.48 220.081 1053.59 231.662 1059.09 249.141C1066.39 272.326 1060.57 290.843 1046.27 309.437C1030.32 330.183 1031.31 368.024 1042.4 376.338" stroke="#BBBBBB" stroke-width="11.0406" stroke-linecap="round"/>
<path d="M1224 590H6" stroke="#777777" stroke-width="10.5227" stroke-linecap="round"/>
</svg>
