<svg width="22" height="20" viewBox="0 0 22 20" fill="none" xmlns="http://www.w3.org/2000/svg">
<path fill-rule="evenodd" clip-rule="evenodd" d="M5.04227 0.0242724C2.7853 0.384351 0.909117 1.99977 0.224872 4.17233C-0.0993924 5.20185 -0.0696763 6.87312 0.292725 7.99575C1.09864 10.4921 2.83815 12.629 7.41666 16.7476C8.24029 17.4884 9.35082 18.5233 9.88455 19.0472L10.8549 20L11.3849 19.4566C11.6763 19.1577 12.785 18.1228 13.8487 17.1568C18.9823 12.495 20.5797 10.5589 21.4072 7.99575C21.7696 6.87312 21.7994 5.20185 21.4751 4.17233C20.8843 2.29635 19.398 0.811702 17.5289 0.230446C16.9997 0.0657975 16.6075 0.0194326 15.7381 0.018755C14.7395 0.0178839 14.5378 0.0486647 13.777 0.317368C12.7474 0.681125 12.012 1.11486 11.3865 1.72729C11.1278 1.9807 10.8863 2.18803 10.85 2.18803C10.8137 2.18803 10.5722 1.9807 10.3135 1.72729C9.28568 0.721004 7.71885 0.0639584 6.21746 0.00984985C5.73078 -0.00767008 5.20199 -0.00118479 5.04227 0.0242724Z" fill="#0A1629"/>
</svg>
