<svg width="16" height="16" viewBox="0 0 16 16" fill="none" xmlns="http://www.w3.org/2000/svg">
<path fill-rule="evenodd" clip-rule="evenodd" d="M8.00006 0C3.58006 0 6.10352e-05 3.67055 6.10352e-05 8.20235C6.10352e-05 11.8319 2.29006 14.8975 5.47006 15.9843C5.87006 16.0561 6.02006 15.81 6.02006 15.5947C6.02006 15.3999 6.01006 14.754 6.01006 14.067C4.00006 14.4464 3.48006 13.5646 3.32006 13.1033C3.23006 12.8674 2.84006 12.1395 2.50006 11.9447C2.22006 11.7909 1.82006 11.4115 2.49006 11.4013C3.12006 11.391 3.57006 11.9959 3.72006 12.242C4.44006 13.4826 5.59006 13.134 6.05006 12.9187C6.12006 12.3855 6.33006 12.0267 6.56006 11.8216C4.78006 11.6166 2.92006 10.9091 2.92006 7.77173C2.92006 6.87972 3.23006 6.14151 3.74006 5.56735C3.66006 5.36229 3.38006 4.52155 3.82006 3.39372C3.82006 3.39372 4.49006 3.17841 6.02006 4.23446C6.66006 4.04991 7.34006 3.95763 8.02006 3.95763C8.70006 3.95763 9.38006 4.04991 10.0201 4.23446C11.5501 3.16816 12.2201 3.39372 12.2201 3.39372C12.6601 4.52155 12.3801 5.36229 12.3001 5.56735C12.8101 6.14151 13.1201 6.86947 13.1201 7.77173C13.1201 10.9194 11.2501 11.6166 9.47006 11.8216C9.76006 12.078 10.0101 12.5701 10.0101 13.3391C10.0101 14.4361 10.0001 15.3179 10.0001 15.5947C10.0001 15.81 10.1501 16.0664 10.5501 15.9843C12.1382 15.4346 13.5182 14.3881 14.4959 12.9921C15.4736 11.5961 15.9996 9.92095 16.0001 8.20235C16.0001 3.67055 12.4201 0 8.00006 0Z" fill="#EEEEEE"/>
</svg>
