<svg width="111" height="62" viewBox="0 0 111 62" fill="none" xmlns="http://www.w3.org/2000/svg">
<path fill-rule="evenodd" clip-rule="evenodd" d="M51.9343 0.760338C48.8469 2.19781 47.0827 4.83323 46.7384 8.52193L46.5484 10.5561L43.2272 10.6645C40.5985 10.7503 39.7893 10.8895 39.3466 11.3329C38.8151 11.865 38.8405 12.4662 39.8533 23.3895C40.4397 29.7127 41.0438 35.5697 41.1959 36.4053C41.555 38.379 42.7964 40.2238 44.3547 41.0996C45.5578 41.7758 45.9266 41.7986 55.6179 41.7986C66.474 41.7986 66.5219 41.7915 68.2372 39.9785C68.7124 39.4766 69.2622 38.6398 69.4589 38.1189C69.6557 37.5981 70.3482 31.4694 70.998 24.4997L72.1795 11.8277L71.4288 11.22C70.8073 10.7166 70.1386 10.6121 67.5401 10.6121H64.4022L64.1881 8.92414C63.8097 5.93827 63.0445 4.16256 61.4485 2.56658C58.8803 -0.00164178 55.1083 -0.717647 51.9343 0.760338ZM57.1447 3.56037C59.1982 4.33843 60.763 6.78834 60.7756 9.24565L60.7826 10.6121H55.4777H50.1728V9.31573C50.1728 5.23577 53.7573 2.2769 57.1447 3.56037ZM2.33394 50.5254C0.20618 51.8876 -0.657398 55.5519 0.549553 58.0953C1.64012 60.3932 5.09057 61.6647 7.50158 60.6574C8.76479 60.1295 8.90561 59.8276 8.3629 58.8136C8.09862 58.3194 7.89961 58.2561 7.41959 58.513C7.0849 58.6921 6.21168 58.8387 5.47927 58.8387C4.43565 58.8387 3.94374 58.6351 3.20748 57.8989C2.41206 57.1031 2.26771 56.7048 2.26771 55.302C2.26771 53.8868 2.40949 53.5032 3.23931 52.6734C4.08167 51.831 4.3916 51.7201 5.57026 51.8397C6.31777 51.9156 7.1656 52.0834 7.45399 52.2126C7.84913 52.3901 8.0639 52.2027 8.32593 51.451C8.64519 50.5344 8.60789 50.4292 7.86103 50.1453C6.38465 49.584 3.49363 49.7827 2.33394 50.5254ZM10.627 50.8009C10.627 51.7117 10.6984 51.7654 11.913 51.7654H13.1991V56.2666V60.7677H14.1636H15.1281V56.2666V51.7654H16.5749C17.968 51.7654 18.0217 51.7297 18.0217 50.8009V49.8364H14.3244H10.627V50.8009ZM20.2723 55.302V60.7677H23.0418C25.267 60.7677 26.0492 60.634 27.0227 60.0868C30.6439 58.0516 30.3828 52.1628 26.5916 50.364C25.8457 50.0097 24.6239 49.8364 22.8762 49.8364H20.2723V55.302ZM39.4022 50.1296C37.6117 50.926 36.3478 53.0666 36.3478 55.302C36.3478 59.5981 40.2703 62.0721 44.52 60.4562C45.2598 60.1749 45.2971 60.0684 44.9781 59.1531C44.7155 58.3998 44.5023 58.2143 44.1062 58.3937C43.8178 58.5242 42.9173 58.6904 42.1048 58.7625C40.9033 58.8695 40.4648 58.7538 39.7539 58.1423C38.1097 56.7283 38.311 53.4135 40.1127 52.2329C40.9046 51.7143 42.6311 51.7024 43.7657 52.2081C44.4187 52.4991 45.2466 50.8903 44.7168 50.3604C44.2811 49.9248 40.2551 49.7502 39.4022 50.1296ZM25.7444 52.2509C26.2608 52.5181 26.8324 53.0148 27.0144 53.3553C27.4413 54.1523 27.4413 56.4518 27.0144 57.2488C26.535 58.1445 25.0024 58.8387 23.5035 58.8387H22.2014V55.302V51.7654H23.5035C24.2195 51.7654 25.2281 51.9841 25.7444 52.2509ZM48.7565 54.5069C47.4065 55.2111 46.9795 55.9242 46.968 57.4935C46.9551 59.2097 47.348 59.9775 48.5588 60.6038C50.6808 61.7007 53.3384 60.7764 54.0226 58.7027C55.0607 55.558 51.7694 52.9357 48.7565 54.5069ZM58.7362 54.6825C58.034 55.2348 57.889 55.2622 57.889 54.8432C57.889 54.4957 57.5875 54.3375 56.9245 54.3375H55.96V57.5526V60.7677H57.0853H58.2106V58.8387C58.2106 57.3456 58.3543 56.7659 58.8462 56.274C59.9917 55.1284 60.4611 55.7441 60.4611 58.3908V60.7677H61.5864H62.7117V58.6962C62.7117 56.9315 62.8156 56.5518 63.4132 56.1331C64.5411 55.3432 64.9623 56.0023 64.9623 58.5564V60.7677H65.9268H66.8913V57.924C66.8913 55.5773 66.7885 54.9873 66.3033 54.5481C65.5288 53.8472 64.2459 53.8726 63.3386 54.6073C62.6297 55.1815 62.5911 55.1815 62.0169 54.6073C61.234 53.8244 59.785 53.8575 58.7362 54.6825ZM72.0468 54.5587C71.4973 54.9436 71.2349 54.9902 71.1446 54.7195C71.0748 54.5095 70.5955 54.3375 70.0798 54.3375H69.1419V57.5526V60.7677H70.2672H71.3925V58.8387C71.3925 57.3456 71.5362 56.7659 72.0281 56.274C73.1737 55.1284 73.6431 55.7441 73.6431 58.3908V60.7677H74.7683H75.8936V58.8387C75.8936 57.3176 76.0341 56.7691 76.5582 56.245C77.633 55.1702 78.1442 55.9152 78.1442 58.5564V60.7677H79.1087H80.0733V57.924C80.0733 55.5773 79.9704 54.9873 79.4852 54.5481C78.7464 53.8794 77.5369 53.8662 76.6084 54.5166C75.9615 54.9696 75.8258 54.9696 75.1789 54.5166C74.2478 53.8642 73.0148 53.8806 72.0468 54.5587ZM83.6822 54.6603C81.775 55.8232 81.4378 58.1966 82.9405 59.8784C83.7845 60.823 84.0561 60.9285 85.6467 60.9285C87.7304 60.9285 88.021 60.7275 87.5217 59.6318C87.2195 58.9682 87.0378 58.874 86.5569 59.1316C85.9566 59.4527 84.5744 59.2679 84.5744 58.8666C84.5744 58.7464 85.6537 58.2931 86.9732 57.859L89.372 57.0704L88.8541 56.0087C87.9095 54.0726 85.6238 53.4765 83.6822 54.6603ZM93.923 54.8484C92.971 55.6493 92.9337 55.6554 92.9337 55.0091C92.9337 54.4774 92.7331 54.3375 91.9692 54.3375H91.0046V57.5526V60.7677H91.9692C92.9134 60.7677 92.9337 60.7336 92.9337 59.1457C92.9337 57.8519 93.0935 57.3636 93.723 56.7344C94.157 56.3003 94.7358 55.9451 95.009 55.9451C95.3466 55.9451 95.5058 55.6361 95.5058 54.9805C95.5058 53.7993 95.2 53.7739 93.923 54.8484ZM98.5209 54.4742C96.5992 55.3178 95.9099 57.4655 96.9285 59.4351C97.7084 60.9436 99.9552 61.5384 101.762 60.715C102.527 60.3665 102.548 60.3015 102.063 59.7659C101.701 59.3663 101.269 59.2454 100.647 59.3698C100.001 59.499 99.5649 59.3611 99.0758 58.8721C97.7216 57.5179 98.6135 55.7872 100.549 56.0132C101.287 56.0991 101.789 55.9634 102.131 55.5856C102.587 55.0818 102.579 55.0037 102.043 54.7227C100.916 54.1321 99.5243 54.0337 98.5209 54.4742ZM105.955 54.3198C104.136 55.0644 103.314 57.3578 104.213 59.1772C105.051 60.8729 107.379 61.64 109.021 60.7616C109.534 60.487 109.576 60.3089 109.28 59.6598C109.003 59.0525 108.78 58.9374 108.245 59.1254C107.492 59.39 106.437 59.246 106.437 58.8785C106.437 58.7493 107.45 58.3175 108.688 57.9188C109.926 57.5201 110.938 57.044 110.938 56.8604C110.938 56.1878 109.846 54.7044 109.102 54.3648C108.216 53.961 106.878 53.9421 105.955 54.3198ZM51.5968 56.1286C52.6333 57.1652 51.9289 59.4817 50.5769 59.4817C49.7732 59.4817 48.8867 58.4991 48.8867 57.6086C48.8867 55.9775 50.5416 55.0738 51.5968 56.1286ZM86.7459 56.1843C86.869 56.5592 86.3932 56.8289 84.6548 57.3706C83.7735 57.6452 83.6864 57.07 84.4773 56.1962C85.0753 55.5355 86.5305 55.5277 86.7459 56.1843ZM108.179 55.8187C109.239 56.2254 108.762 56.6714 106.518 57.3706C105.645 57.6423 105.517 56.9115 106.299 56.1286C106.838 55.5901 107.359 55.5039 108.179 55.8187Z" fill="#0A1629"/>
</svg>
