<svg width="30" height="30" viewBox="0 0 30 30" fill="none" xmlns="http://www.w3.org/2000/svg">
<path fill-rule="evenodd" clip-rule="evenodd" d="M30 3.75C30 4.44036 29.4404 5 28.75 5H1.25C0.559644 5 0 4.44036 0 3.75V1.25C0 0.559644 0.559645 0 1.25 0H28.75C29.4404 0 30 0.559644 30 1.25V3.75ZM30 16.1164C30 16.8068 29.4404 17.3664 28.75 17.3664H1.25C0.559644 17.3664 0 16.8068 0 16.1164V13.6164C0 12.9261 0.559645 12.3664 1.25 12.3664H28.75C29.4404 12.3664 30 12.9261 30 13.6164V16.1164ZM0 28.4828C0 29.1732 0.559645 29.7328 1.25 29.7328H28.75C29.4404 29.7328 30 29.1732 30 28.4828V25.9828C30 25.2925 29.4404 24.7328 28.75 24.7328H1.25C0.559644 24.7328 0 25.2925 0 25.9828V28.4828Z" fill="#0A1629"/>
</svg>
