<svg width="23" height="23" viewBox="0 0 23 23" fill="none" xmlns="http://www.w3.org/2000/svg">
<circle cx="11.5" cy="11.5" r="11.5" fill="#0A1629"/>
<path fill-rule="evenodd" clip-rule="evenodd" d="M9.84651 3.30924C8.45057 3.89388 7.65295 4.96574 7.49726 6.46597L7.41135 7.2933L5.90973 7.33737C4.72123 7.37228 4.35534 7.42891 4.15517 7.60923C3.91489 7.82564 3.92637 8.07016 4.38427 12.5128C4.64942 15.0845 4.92256 17.4666 4.99131 17.8065C5.15369 18.6092 5.71494 19.3595 6.41953 19.7157C6.96348 19.9907 7.13022 20 11.512 20C16.4204 20 16.442 19.9971 17.2175 19.2598C17.4324 19.0556 17.681 18.7153 17.7699 18.5034C17.8589 18.2916 18.172 15.799 18.4658 12.9643L19 7.81047L18.6606 7.56333C18.3796 7.35855 18.0772 7.31606 16.9024 7.31606H15.4836L15.3868 6.62956C15.2157 5.41517 14.8697 4.69297 14.1482 4.04386C12.987 2.99933 11.2816 2.70812 9.84651 3.30924ZM13.8439 6.76032C13.8382 5.7609 13.1307 4.76449 12.2023 4.44805C10.6707 3.92604 9.05005 5.12945 9.05005 6.78882V7.31606H11.4486H13.8471L13.8439 6.76032Z" fill="white"/>
</svg>
