<svg width="17" height="17" viewBox="0 0 17 17" fill="none" xmlns="http://www.w3.org/2000/svg">
<path d="M8.16673 0C3.65669 0 6.10352e-05 3.65663 6.10352e-05 8.16667C6.10352e-05 12.6767 3.65669 16.3333 8.16673 16.3333C12.6768 16.3333 16.3334 12.6767 16.3334 8.16667C16.3334 3.65663 12.6768 0 8.16673 0ZM5.10151 3.67704C5.67453 3.67704 6.05633 4.05883 6.05633 4.56789C6.05633 5.07694 5.67453 5.45874 5.03821 5.45874C4.46519 5.45942 4.08339 5.07694 4.08339 4.56789C4.08339 4.05883 4.46519 3.67704 5.10151 3.67704ZM6.12506 11.5694H4.08339V6.125H6.12506V11.5694ZM12.9306 11.5694H11.0087V8.59406C11.0087 7.77127 10.4963 7.58139 10.3044 7.58139C10.1124 7.58139 9.47135 7.70797 9.47135 8.59406C9.47135 8.72064 9.47135 11.5694 9.47135 11.5694H7.48617V6.125H9.47203V6.8845C9.72792 6.44146 10.2404 6.125 11.2013 6.125C12.1623 6.125 12.9306 6.8845 12.9306 8.59406V11.5694Z" fill="#EEEEEE"/>
</svg>
