<svg width="89" height="89" viewBox="0 0 89 89" fill="none" xmlns="http://www.w3.org/2000/svg">
<path d="M0 44.5C0 19.9233 19.9233 0 44.5 0C69.0767 0 89 19.9233 89 44.5C89 69.0767 69.0767 89 44.5 89C19.9233 89 0 69.0767 0 44.5Z" fill="#EEEEEE"/>
<path d="M44.2143 62.5251C58.8025 62.5251 70.6286 74.3511 70.6286 88.9394H17.8C17.8 74.3511 29.6261 62.5251 44.2143 62.5251Z" fill="#CCCCCC"/>
<path d="M60.4038 43.7794C60.4038 52.7206 53.1555 59.9688 44.2144 59.9688C35.2732 59.9688 28.0249 52.7206 28.0249 43.7794C28.0249 34.8382 35.2732 27.59 44.2144 27.59C53.1555 27.59 60.4038 34.8382 60.4038 43.7794Z" fill="#CCCCCC"/>
</svg>
